<svg width="22" height="18" viewBox="0 0 22 18" fill="none" xmlns="http://www.w3.org/2000/svg">
<path d="M12.5 0C10.1131 0 7.82387 0.948211 6.13604 2.63604C4.44821 4.32387 3.5 6.61305 3.5 9H0.5L4.39 12.89L4.46 13.03L8.5 9H5.5C5.5 5.13 8.63 2 12.5 2C16.37 2 19.5 5.13 19.5 9C19.5 12.87 16.37 16 12.5 16C10.57 16 8.82 15.21 7.56 13.94L6.14 15.36C6.97341 16.198 7.96449 16.8627 9.05606 17.3158C10.1476 17.769 11.3181 18.0015 12.5 18C14.8869 18 17.1761 17.0518 18.864 15.364C20.5518 13.6761 21.5 11.3869 21.5 9C21.5 6.61305 20.5518 4.32387 18.864 2.63604C17.1761 0.948211 14.8869 3.55683e-08 12.5 0ZM11.5 5V10L15.75 12.52L16.52 11.24L13 9.15V5H11.5Z" fill="black"/>
</svg>
