<svg width="18" height="18" viewBox="0 0 18 18" fill="none" xmlns="http://www.w3.org/2000/svg">
<path d="M5.19786 11.7432C5.432 11.9093 5.71209 11.9984 5.99919 11.998C6.28726 11.9992 6.56846 11.91 6.80319 11.743C7.03834 11.5695 7.21642 11.3297 7.31469 11.0545L7.83519 9.454C7.96155 9.07665 8.17359 8.73369 8.45469 8.452C8.73458 8.17154 9.07617 7.96042 9.45219 7.8355L11.0812 7.306C11.35 7.21016 11.5826 7.03361 11.7472 6.8005C11.9122 6.56739 12.0008 6.28884 12.0008 6.00325C12.0008 5.71766 11.9122 5.43911 11.7472 5.206C11.5694 4.95797 11.3164 4.77387 11.0257 4.681L9.42219 4.162C9.04484 4.03735 8.70184 3.82623 8.42057 3.54548C8.1393 3.26473 7.92754 2.92212 7.80219 2.545L7.27269 0.919002C7.17778 0.65013 7.00166 0.417397 6.76869 0.253001C6.53335 0.0907764 6.25427 0.00390625 5.96844 0.00390625C5.68261 0.00390625 5.40352 0.0907764 5.16819 0.253001C4.92858 0.421723 4.74891 0.662341 4.65519 0.940001L4.12269 2.575C3.99714 2.9411 3.79036 3.27404 3.51786 3.54888C3.24536 3.82372 2.9142 4.03333 2.54919 4.162L0.923189 4.6885C0.65155 4.7845 0.416624 4.96284 0.251149 5.19868C0.0856736 5.43452 -0.00210782 5.71611 3.84385e-05 6.0042C0.0021847 6.29229 0.0941516 6.57254 0.263122 6.80589C0.432093 7.03924 0.669651 7.21407 0.94269 7.306L2.54319 7.8265C2.9215 7.95323 3.26509 8.16636 3.54669 8.449C3.62279 8.52433 3.69393 8.6045 3.75969 8.689C3.93722 8.918 4.0742 9.17573 4.16469 9.451L4.69269 11.071C4.78714 11.3421 4.96371 11.5771 5.19786 11.7432ZM12.8015 17.776C13.0055 17.9203 13.2492 17.9979 13.499 17.998C13.7462 17.9957 13.9867 17.9171 14.1875 17.773C14.3968 17.6252 14.5543 17.4153 14.6375 17.173L15.0095 16.03C15.0893 15.7923 15.2228 15.5763 15.3995 15.3985C15.5756 15.2207 15.7916 15.0875 16.0295 15.01L17.1875 14.632C17.4241 14.5503 17.6291 14.3966 17.774 14.1925C17.8841 14.038 17.9559 13.8596 17.9837 13.6719C18.0114 13.4843 17.9943 13.2927 17.9337 13.113C17.8731 12.9332 17.7708 12.7704 17.6351 12.6379C17.4994 12.5053 17.3342 12.4068 17.153 12.3505L16.007 11.977C15.7698 11.8981 15.5542 11.7652 15.3772 11.5887C15.2001 11.4122 15.0666 11.197 14.987 10.96L14.609 9.79901C14.5275 9.56313 14.3737 9.35895 14.1695 9.21551C14.0165 9.10608 13.8399 9.03417 13.6539 9.00558C13.468 8.97699 13.2779 8.99252 13.0991 9.05091C12.9202 9.10931 12.7576 9.20894 12.6244 9.34175C12.4911 9.47457 12.391 9.63685 12.332 9.81551L11.9615 10.9585C11.8831 11.195 11.7518 11.4104 11.5775 11.5885C11.4057 11.7629 11.1964 11.8957 10.9655 11.977L9.80153 12.3565C9.62534 12.4178 9.46585 12.5193 9.33573 12.6529C9.20562 12.7866 9.10845 12.9488 9.05196 13.1265C8.99547 13.3043 8.9812 13.4928 9.01028 13.6771C9.03937 13.8613 9.11102 14.0363 9.21953 14.188C9.36685 14.3977 9.57693 14.5553 9.81953 14.638L10.964 15.0085C11.2023 15.0886 11.4189 15.2226 11.597 15.4C11.7744 15.5774 11.907 15.7943 11.984 16.033L12.3635 17.194C12.4457 17.4287 12.5988 17.6321 12.8015 17.776Z" fill="#5332E6"/>
</svg>
